HIERARCHY
ROOT Hips
{
	OFFSET -0.179506 -22.333345 2.821913
	CHANNELS 6 Xposition Yposition Zposition Zrotation Yrotation Xrotation 
	JOINT LeftUpLeg
	{
		OFFSET 6.951974 -9.140623 -0.681533
		CHANNELS 3 Zrotation Yrotation Xrotation
		JOINT LeftLeg
		{
			OFFSET 3.427654 -37.519855 -0.449580
			CHANNELS 3 Zrotation Yrotation Xrotation
			JOINT LeftFoot
			{
				OFFSET -1.359570 -39.796059 -4.369333
				CHANNELS 3 Zrotation Yrotation Xrotation
				JOINT LeftToe
				{
					OFFSET 2.635814 -5.579078 11.928840
					CHANNELS 3 Zrotation Yrotation Xrotation
					End Site
					{
						OFFSET 0.000000 0.000000 0.000000
					}
				}
			}
		}
	}
	JOINT RightUpLeg
	{
		OFFSET -6.767048 -9.052170 -0.431982
		CHANNELS 3 Zrotation Yrotation Xrotation
		JOINT RightLeg
		{
			OFFSET -3.829005 -38.256897 -0.885003
			CHANNELS 3 Zrotation Yrotation Xrotation
			JOINT RightFoot
			{
				OFFSET 1.577377 -39.841461 -4.231180
				CHANNELS 3 Zrotation Yrotation Xrotation
				JOINT RightToe
				{
					OFFSET -2.537174 -4.814398 12.334795
					CHANNELS 3 Zrotation Yrotation Xrotation
					End Site
					{
						OFFSET 0.000000 0.000000 0.000000
					}
				}
			}
		}
	}
	JOINT Spine
	{
		OFFSET -0.253288 10.896323 -2.669631
		CHANNELS 3 Zrotation Yrotation Xrotation
		JOINT Spine1
		{
			OFFSET 0.548704 13.518043 0.109247
			CHANNELS 3 Zrotation Yrotation Xrotation
			JOINT Spine2
			{
				OFFSET 0.145701 5.292222 2.542457
				CHANNELS 3 Zrotation Yrotation Xrotation
				JOINT Neck
				{
					OFFSET -0.277840 21.387037 -4.285703
					CHANNELS 3 Zrotation Yrotation Xrotation
					JOINT Head
					{
						OFFSET 0.515184 6.496960 5.134897
						CHANNELS 3 Zrotation Yrotation Xrotation
						End Site
						{
							OFFSET 0.000000 0.000000 0.000000
						}
					}
				}
				JOINT LeftShoulder
				{
					OFFSET 7.884473 12.174932 -3.408961
					CHANNELS 3 Zrotation Yrotation Xrotation
					JOINT LeftArm
					{
						OFFSET 9.097692 3.046888 -0.886815
						CHANNELS 3 Zrotation Yrotation Xrotation
						JOINT LeftForeArm
						{
							OFFSET 25.961220 -1.277207 -2.745643
							CHANNELS 3 Zrotation Yrotation Xrotation
							JOINT LeftHand
							{
								OFFSET 24.923361 0.898606 -0.117091
								CHANNELS 3 Zrotation Yrotation Xrotation
								End Site
								{
									OFFSET 0.000000 0.000000 0.000000
								}
							}
						}
					}
				}
				JOINT RightShoulder
				{
					OFFSET -8.175920 11.883285 -3.861528
					CHANNELS 3 Zrotation Yrotation Xrotation
					JOINT RightArm
					{
						OFFSET -9.601238 3.255117 -0.914307
						CHANNELS 3 Zrotation Yrotation Xrotation
						JOINT RightForeArm
						{
							OFFSET -25.374195 -1.332924 -2.140099
							CHANNELS 3 Zrotation Yrotation Xrotation
							JOINT RightHand
							{
								OFFSET -25.529810 0.777228 -0.555919
								CHANNELS 3 Zrotation Yrotation Xrotation
								End Site
								{
									OFFSET 0.000000 0.000000 0.000000
								}
							}
						}
					}
				}
			}
		}
	}
}
MOTION
Frames: 18
Frame Time: 0.033333
299.174377 -250.422440 86.208038 36.830978 -0.342502 76.974021 1.013972 -3.586484 -18.531013 -11.569576 0.380698 50.600092 8.518049 5.975232 -21.026377 nan nan nan -7.786861 -0.005409 -13.931030 -2.067112 -3.562149 82.627497 6.707898 -3.597928 -7.429316 nan nan nan -2.758384 -0.164533 18.079024 5.001630 -5.389872 -1.193673 1.685087 -1.125870 -2.772192 -0.034922 0.962182 -5.288618 2.946063 3.406618 -12.940563 -18.023085 -3.409658 4.182824 -48.828967 4.708499 10.223036 -114.140483 -79.674694 147.364010 -28.021577 -6.361442 -12.034430 16.910703 0.336310 -3.679202 52.110613 -0.960464 6.844201 -135.909216 78.187459 -102.598221 40.698810 -0.918466 -0.688388 
298.474579 -249.806366 86.230736 35.576728 -1.256633 76.460744 0.358906 -1.586378 -18.298284 -11.225279 0.059997 50.238759 8.327757 5.409119 -20.309091 nan nan nan -8.405791 0.321016 -10.847878 -2.326819 -2.063965 82.282902 7.348563 -2.741577 -8.573116 nan nan nan -3.113862 0.783159 18.459498 4.263733 -3.889309 -1.269396 1.340803 -0.547772 -3.829163 0.539707 0.215153 -4.168622 2.854819 2.238817 -12.765426 -17.562653 -1.454574 4.180124 -48.459276 6.880657 10.291253 -116.586528 -77.867617 149.329173 -29.450866 -6.545577 -12.174794 16.738887 -0.292306 -4.409960 51.663251 -0.490662 7.025795 -141.099682 77.951397 -109.322822 40.637056 -0.725604 -0.498746 
297.671204 -248.764099 86.172264 35.212277 -1.325752 76.291924 0.276467 -1.326621 -19.228425 -10.968289 0.071843 50.326017 8.283112 5.486624 -19.206103 nan nan nan -8.557743 0.378089 -8.197038 -1.793780 -1.447478 81.492628 7.047428 -2.266207 -8.268973 nan nan nan -2.839167 1.503978 17.223815 3.953302 -3.221813 -0.355614 1.097742 0.352181 -3.043846 0.642398 -0.699512 -4.104404 3.083292 1.020697 -13.599407 -17.485390 -0.751019 4.310833 -48.100597 7.914610 10.020203 -118.869618 -76.896274 150.615984 -28.783832 -6.771946 -13.621624 16.773779 -0.126356 -4.887516 50.575256 1.109242 6.588990 -141.291556 77.420480 -112.191782 35.107433 0.430466 -1.608826 
296.812653 -247.747162 86.193573 34.745012 -1.536957 76.076863 0.147981 -1.098191 -19.897293 -10.611835 0.354334 49.909201 8.161937 5.725961 -18.173729 nan nan nan -8.719393 0.413330 -5.530214 -1.129571 -0.611622 80.406162 6.852231 -2.004568 -8.591113 nan nan nan -2.342429 2.363183 16.494755 3.478499 -2.379695 -0.028919 0.501954 0.960543 -2.518653 0.936422 -1.611596 -3.904930 3.468020 -0.177322 -13.762391 -16.941511 0.114713 4.322867 -47.453509 9.343571 10.151900 -122.049510 -75.946780 152.652011 -28.438303 -7.502743 -14.501998 16.195704 0.223776 -4.907997 49.968376 1.736036 6.443210 -141.352448 76.416449 -113.408126 32.663504 0.839657 -1.624629 
296.008209 -246.717834 86.323074 34.182318 -1.564494 75.899281 0.292853 -0.855562 -20.419209 -10.060169 0.949635 49.113556 8.010603 5.808792 -16.855516 nan nan nan -8.730666 0.469351 -2.828981 -0.335719 0.250710 78.822392 6.275121 -1.660598 -8.832409 nan nan nan -2.156494 3.047245 15.809171 3.306581 -1.752127 0.370192 0.518606 2.045234 -2.346230 0.867747 -2.888156 -3.583440 3.760012 -0.998310 -13.688454 -16.537571 1.295266 3.788936 -47.072615 11.151736 10.251533 -124.007899 -74.731724 153.946963 -29.336703 -8.785387 -15.498153 15.074026 0.791028 -4.489352 48.514983 1.913924 5.435282 -143.650452 75.232680 -115.041867 32.747061 0.318400 -0.448233 
295.127899 -245.376144 86.170029 34.345073 -0.414702 76.846362 1.644697 -2.095963 -23.061633 -9.551046 1.868546 49.064590 7.971163 5.661423 -15.087085 nan nan nan -7.564169 0.309675 -1.566303 0.477820 0.332517 77.327211 5.523718 -1.282816 -9.299874 nan nan nan -0.334106 3.300558 14.516375 3.452374 -1.397613 -0.876936 -0.114506 2.987069 -0.872698 0.878312 -3.759282 -3.894474 3.756478 -2.189543 -12.807240 -15.871080 2.494335 3.396566 -46.713895 12.194064 10.590411 -125.054490 -73.507313 154.436528 -29.187019 -10.335103 -17.724998 13.646062 0.726131 -4.297068 47.698765 2.333699 4.621172 -145.367511 74.872882 -117.310253 29.791475 2.131301 -2.871742 
294.287903 -244.370148 86.490807 33.666677 -0.630521 75.568955 1.416646 -1.628472 -21.712091 -9.527470 1.188321 47.425404 7.832528 6.023777 -13.629527 nan nan nan -7.516397 0.219643 2.493753 1.359619 2.058057 74.626370 5.660680 -0.847716 -9.259437 nan nan nan 0.193578 4.389350 14.991833 2.966774 -0.561570 -0.698828 -0.263369 3.874788 -0.435883 0.720458 -5.285195 -3.380723 4.262062 -2.931262 -12.555457 -15.242882 3.208358 2.782129 -45.492536 13.526558 11.293094 -126.697824 -72.350151 154.509590 -28.461221 -10.746512 -19.243054 12.760362 1.147556 -4.949686 46.650969 1.517573 4.678247 -145.322598 74.177844 -118.952422 27.591122 1.806795 -2.280249 
293.544403 -243.481720 86.910866 32.656578 -0.767111 74.521535 1.271330 -0.485184 -20.303110 -9.227105 0.318984 45.620922 7.660869 6.088224 -12.313463 nan nan nan -7.417104 -0.015049 6.246930 2.302433 4.367287 71.644072 5.968701 -0.424512 -9.515669 nan nan nan 0.790228 5.329065 14.559675 2.570807 0.446992 0.209181 -0.317701 5.007779 -0.291355 0.329340 -6.707172 -2.421054 4.719966 -3.592706 -12.352299 -14.714679 3.734376 2.303277 -44.118171 14.920882 11.753828 -128.149346 -70.950857 154.347587 -27.931983 -10.705986 -20.133576 11.652786 1.651183 -5.398125 45.338843 0.194806 4.460750 -146.258586 73.678905 -121.740431 24.873984 1.130983 -0.900048 
292.690887 -242.398300 87.298386 32.059899 -0.641420 74.583784 1.496592 -0.450563 -20.398337 -9.071920 -0.159895 43.714393 7.312358 6.486769 -10.360383 nan nan nan -7.030898 -0.222855 8.435760 3.043510 6.056721 68.684337 6.117625 0.128562 -9.538469 nan nan nan 1.382989 6.111188 13.412043 2.494843 1.229571 0.521048 -0.337179 6.193946 -0.126602 -0.213380 -7.800857 -1.210963 5.047924 -4.547357 -12.165038 -14.186466 4.271982 2.014875 -42.784637 15.927352 12.286079 -129.644833 -69.722918 154.531309 -27.955237 -10.900456 -20.963599 10.393700 1.612706 -5.677956 44.439870 -1.055143 3.960789 -148.066447 73.573992 -124.689950 22.471812 1.036819 -0.600199 
291.644501 -241.178238 87.849953 31.779264 -1.013442 74.687682 1.247263 -1.099973 -20.295238 -9.180966 -0.781002 41.051598 6.845776 7.397904 -7.702949 nan nan nan -7.157976 -0.341020 10.245536 3.546917 7.507715 65.848640 5.826150 0.896518 -9.345655 nan nan nan 1.278376 7.117435 12.640146 2.300558 1.791762 0.792799 -0.246205 7.001485 -0.329354 -0.608148 -8.603342 0.360671 5.613789 -5.429979 -12.505390 -13.769587 4.903224 1.578843 -41.059123 16.695815 13.047923 -131.263633 -68.729497 155.369999 -27.280508 -10.995440 -20.858094 9.643589 1.436422 -5.695177 43.613139 -1.819133 3.541496 -149.062138 73.807631 -126.308006 20.815310 0.812138 -0.508145 
290.758667 -240.079453 88.416107 30.444491 -0.921939 74.820042 1.611439 -0.167617 -19.928200 -8.638227 -1.295520 38.526083 6.386020 7.407414 -5.522669 nan nan nan -6.735386 -0.246391 11.723740 4.509677 9.860486 63.062049 5.760731 1.365550 -9.871268 nan nan nan 2.242742 7.679217 10.618253 2.199771 2.971567 2.109611 -0.693753 7.993756 -0.013908 -0.920947 -9.511366 1.715532 5.890542 -5.813181 -12.650651 -13.237421 5.818437 1.098769 -39.497777 17.032376 13.568257 -131.842557 -67.622241 156.208607 -24.897144 -10.950076 -20.195929 8.852973 1.313373 -5.153247 42.529474 -1.874972 2.762974 -150.412100 74.468019 -128.009914 19.830535 1.001660 -0.720389 
289.456665 -238.774384 89.089447 31.459000 -1.146389 74.469356 1.122936 -1.771921 -19.248500 -8.438827 -2.526670 35.292749 5.580427 8.141811 -2.450716 nan nan nan -6.784988 -1.037872 13.832424 4.868962 10.844122 60.013015 6.046407 2.490570 -10.407768 nan nan nan 2.514296 8.500206 11.038831 1.713163 2.765276 1.722915 -1.012743 7.838308 -0.184915 -0.965306 -9.554975 3.167839 6.508015 -7.032508 -12.819447 -12.398900 6.369686 0.839458 -37.761167 17.267981 14.026604 -133.168332 -66.861124 157.560970 -22.722558 -11.066119 -19.647037 8.251419 1.312605 -4.488598 42.437676 -1.706910 2.416040 -149.306291 75.371122 -127.127756 17.056495 1.144557 -0.309364 
288.358124 -237.489777 89.748924 31.115551 -0.989252 74.404410 1.216946 -1.828638 -18.413280 -7.690435 -3.778345 31.771936 4.613826 8.363705 0.131367 nan nan nan -6.397059 -1.403253 15.080249 5.127909 12.436300 57.185684 5.880479 3.603183 -10.617756 nan nan nan 3.296057 8.980119 11.061557 1.277805 3.392454 1.638192 -1.200428 8.655956 -0.635479 -1.528773 -10.445443 4.344168 7.261277 -7.929712 -12.576578 -11.474646 6.916570 0.324545 -36.677699 17.413951 14.056714 -132.868189 -65.665310 157.349184 -20.584905 -11.756374 -19.158833 7.127989 0.957550 -4.899177 42.708644 -2.939771 1.812048 -151.632684 76.548037 -130.246137 14.821794 1.931860 -0.033795 
287.230774 -236.157578 90.433922 30.683428 -0.886235 74.702515 1.239589 -1.759067 -17.799138 -6.568576 -4.975711 27.732314 3.487786 8.551717 3.244626 nan nan nan -6.154810 -1.724477 15.537350 5.327841 13.764413 54.634636 5.552045 4.657035 -10.724002 nan nan nan 3.873459 9.223453 10.424703 0.950398 3.908116 2.044492 -1.230187 9.344506 -1.378127 -2.176122 -11.179478 5.882460 7.531936 -7.577792 -12.406294 -11.132804 7.703780 -0.273606 -35.506658 17.667638 13.861769 -132.178271 -64.617716 156.765166 -19.964166 -11.740307 -18.960020 5.979672 0.951811 -4.489557 42.922397 -3.435606 1.364191 -152.391503 77.655251 -131.990440 11.991658 1.387910 -0.461036 
285.709137 -234.814316 91.077209 31.386186 -0.982654 74.934371 1.245597 -2.915941 -17.339970 -5.424543 -5.419282 23.352807 1.867636 8.490747 7.269997 nan nan nan -5.987285 -2.603796 15.887969 4.703871 14.010439 52.135940 4.939021 6.300150 -10.783756 nan nan nan 4.060547 9.994676 9.843549 0.558683 3.775652 2.746344 -1.451365 8.991166 -2.018884 -2.660773 -10.805153 7.782675 8.385108 -8.250703 -13.381970 -10.337217 7.546327 0.026082 -35.146084 17.424141 13.215147 -132.800883 -64.773292 157.668836 -21.476779 -11.261823 -19.905930 5.263533 1.063979 -3.700016 43.573203 -3.180327 0.790306 -151.397479 78.673637 -130.841765 10.675680 0.708347 -2.678472 
284.370514 -233.549576 91.738319 31.941512 -1.075843 74.966264 1.245505 -4.630823 -15.994545 -4.139037 -5.663445 18.143864 0.429146 8.853175 11.028091 nan nan nan -5.849652 -2.315446 16.279241 4.616680 12.944294 49.780385 5.677774 7.347525 -10.997852 nan nan nan 3.987494 9.920140 9.555998 0.461677 3.489842 3.179971 -1.508646 8.665733 -2.813624 -3.047283 -10.120064 9.302720 8.345940 -8.588457 -13.549182 -9.592734 8.237901 0.001971 -35.348237 17.654692 12.779493 -132.610560 -65.024377 157.970695 -23.566723 -11.751902 -20.207692 4.735370 1.779772 -1.757481 43.524380 -2.156779 0.691471 -148.724647 79.444384 -127.752436 11.241078 1.032990 -3.505294 
282.996765 -232.171143 92.260330 32.437520 -0.798645 75.478201 1.419803 -5.092334 -15.934062 -3.123566 -7.613825 14.569851 -0.924582 9.028930 13.537558 nan nan nan -5.270163 -2.500257 15.711822 4.380646 11.957255 48.142159 6.214749 7.816833 -11.449455 nan nan nan 4.088394 9.626832 9.289086 0.393161 3.359713 2.968061 -1.381287 8.507366 -3.454256 -3.620050 -9.957778 10.307712 8.302003 -8.545512 -13.478955 -9.044424 8.430354 0.083516 -35.823105 17.859387 12.347977 -132.270033 -65.177690 157.943379 -23.758587 -11.833276 -20.748126 4.131776 2.154754 -0.903577 43.265207 -2.326871 0.639512 -152.746432 80.323303 -131.970747 11.943300 1.461012 -5.697355 
281.672211 -230.795334 92.716515 32.543138 -0.518156 76.174187 1.712796 -5.000745 -16.223253 -2.313406 -9.729709 12.260790 -1.507311 8.479809 13.530133 nan nan nan -4.676527 -2.678032 14.678621 4.084339 11.129920 46.821398 6.385209 7.652884 -11.994687 nan nan nan 4.307303 9.317956 8.700761 0.329270 3.358298 2.956478 -1.315347 8.366797 -4.036360 -3.974446 -9.764807 10.946120 8.184706 -8.384893 -13.348606 -8.745210 8.365855 0.534474 -36.531227 18.053227 11.841189 -132.318434 -65.579503 158.038253 -22.986391 -11.810156 -20.613914 3.834172 2.510629 -0.239649 42.738460 -2.473853 0.560886 -157.493125 81.335214 -137.217708 11.543827 2.011015 -7.114226 
